<svg width="20" height="20" viewBox="0 0 20 20" fill="none" xmlns="http://www.w3.org/2000/svg">
<g clip-path="url(#clip0_1_470)">
<path d="M10 10.894C10.7767 10.894 11.4062 10.2926 11.4062 9.55086C11.4062 8.80909 10.7767 8.20776 10 8.20776C9.22335 8.20776 8.59375 8.80909 8.59375 9.55086C8.59375 10.2926 9.22335 10.894 10 10.894Z" fill="#C8C8D3"/>
<path d="M7.43126 12.7508C7.30981 12.7509 7.1897 12.7265 7.07887 12.679C6.96805 12.6315 6.86901 12.5622 6.78829 12.4755C6.03861 11.6697 5.62453 10.6292 5.62453 9.55128C5.62453 8.47334 6.03861 7.43285 6.78829 6.62706C6.86264 6.54439 6.95349 6.47668 7.05553 6.42789C7.15757 6.3791 7.26877 6.35021 7.38262 6.34291C7.49648 6.33561 7.61072 6.35003 7.71867 6.38534C7.82663 6.42066 7.92614 6.47615 8.0114 6.54859C8.09666 6.62103 8.16596 6.70896 8.21526 6.80725C8.26456 6.90555 8.29287 7.01223 8.29853 7.12108C8.3042 7.22994 8.28711 7.33878 8.24827 7.44126C8.20942 7.54373 8.14959 7.6378 8.07228 7.71796C7.60232 8.22324 7.34276 8.87562 7.34276 9.55147C7.34276 10.2273 7.60232 10.8797 8.07228 11.385C8.18224 11.5032 8.2541 11.6493 8.2792 11.8056C8.30431 11.9619 8.2816 12.1218 8.2138 12.2661C8.14601 12.4104 8.03601 12.5329 7.89705 12.6189C7.75808 12.7049 7.59606 12.7507 7.43048 12.7508H7.43126Z" fill="#C8C8D3"/>
<path d="M12.5688 12.7508C12.4032 12.7507 12.2412 12.7049 12.1022 12.6189C11.9632 12.5329 11.8532 12.4104 11.7854 12.2661C11.7176 12.1218 11.6949 11.9619 11.72 11.8056C11.7451 11.6493 11.817 11.5032 11.927 11.385C12.3969 10.8797 12.6565 10.2273 12.6565 9.55147C12.6565 8.87562 12.3969 8.22324 11.927 7.71796C11.8496 7.6378 11.7898 7.54373 11.751 7.44126C11.7121 7.33878 11.695 7.22994 11.7007 7.12108C11.7064 7.01223 11.7347 6.90555 11.784 6.80725C11.8333 6.70896 11.9026 6.62103 11.9878 6.54859C12.0731 6.47615 12.1726 6.42066 12.2806 6.38534C12.3885 6.35003 12.5028 6.33561 12.6166 6.34291C12.7305 6.35021 12.8417 6.3791 12.9437 6.42789C13.0457 6.47668 13.1366 6.54439 13.2109 6.62706C13.9606 7.43285 14.3747 8.47334 14.3747 9.55128C14.3747 10.6292 13.9606 11.6697 13.2109 12.4755C13.1303 12.5621 13.0314 12.6314 12.9207 12.6788C12.81 12.7263 12.6901 12.7508 12.5688 12.7508Z" fill="#C8C8D3"/>
<path d="M5.44102 14.6517C5.32314 14.6518 5.2065 14.6286 5.09842 14.5837C4.99033 14.5388 4.89313 14.473 4.81289 14.3905C3.52785 13.0775 2.813 11.3473 2.813 9.54996C2.813 7.75264 3.52785 6.02242 4.81289 4.70941C4.88981 4.63001 4.9824 4.56591 5.08534 4.52081C5.18828 4.4757 5.29953 4.45048 5.41272 4.44658C5.5259 4.44268 5.63877 4.46019 5.74485 4.49809C5.85092 4.536 5.9481 4.59356 6.0308 4.66746C6.11351 4.74136 6.1801 4.83015 6.22676 4.92871C6.27341 5.02728 6.29921 5.13368 6.30266 5.24179C6.30612 5.34991 6.28716 5.45762 6.24688 5.55872C6.20661 5.65981 6.1458 5.75231 6.06797 5.83089C5.08071 6.8398 4.53153 8.1692 4.53153 9.55014C4.53153 10.9311 5.08071 12.2605 6.06797 13.2694C6.18203 13.3863 6.25789 13.5324 6.28625 13.6899C6.31462 13.8473 6.29424 14.0093 6.22764 14.1558C6.16103 14.3024 6.05108 14.4272 5.91128 14.5149C5.77149 14.6027 5.60791 14.6496 5.44063 14.6498L5.44102 14.6517Z" fill="#C8C8D3"/>
<path d="M14.559 14.6517C14.3917 14.6514 14.2281 14.6046 14.0883 14.5168C13.9485 14.4291 13.8386 14.3043 13.772 14.1577C13.7054 14.0112 13.685 13.8492 13.7134 13.6918C13.7417 13.5343 13.8176 13.3882 13.9316 13.2713C14.9189 12.2624 15.4681 10.933 15.4681 9.55203C15.4681 8.17109 14.9189 6.84169 13.9316 5.83278C13.8538 5.7542 13.793 5.66171 13.7527 5.56061C13.7125 5.45951 13.6935 5.3518 13.6969 5.24369C13.7004 5.13557 13.7262 5.02917 13.7729 4.9306C13.8195 4.83204 13.8861 4.74325 13.9688 4.66935C14.0515 4.59545 14.1487 4.53789 14.2548 4.49999C14.3608 4.46208 14.4737 4.44457 14.5869 4.44847C14.7001 4.45237 14.8113 4.4776 14.9143 4.5227C15.0172 4.56781 15.1098 4.6319 15.1867 4.7113C16.4718 6.02431 17.1866 7.75453 17.1866 9.55185C17.1866 11.3492 16.4718 13.0794 15.1867 14.3924C15.1064 14.4745 15.0091 14.5399 14.9011 14.5845C14.7931 14.6291 14.6767 14.652 14.559 14.6517Z" fill="#C8C8D3"/>
<path d="M16.7578 16.341C16.5919 16.341 16.4296 16.2951 16.2904 16.2089C16.1512 16.1227 16.0411 15.9998 15.9734 15.8552C15.9057 15.7105 15.8833 15.5502 15.9089 15.3937C15.9345 15.2371 16.0069 15.091 16.1176 14.9729C17.5112 13.4805 18.2814 11.5507 18.2814 9.55092C18.2814 7.55118 17.5112 5.62132 16.1176 4.12892C15.9704 3.96606 15.8961 3.75455 15.9106 3.53989C15.9251 3.32522 16.0272 3.12457 16.1951 2.98111C16.3629 2.83765 16.583 2.76284 16.8079 2.77279C17.0329 2.78274 17.2448 2.87664 17.398 3.0343C19.0737 4.82769 19.9998 7.14728 19.9998 9.55092C19.9998 11.9546 19.0737 14.2741 17.398 16.0675C17.3175 16.1536 17.2188 16.2224 17.1085 16.2695C16.9981 16.3166 16.8787 16.341 16.7578 16.341Z" fill="#C8C8D3"/>
<path d="M3.24217 16.341C3.12116 16.3412 3.00148 16.317 2.891 16.2698C2.78051 16.2227 2.68173 16.1538 2.60115 16.0675C0.925522 14.2741 -0.000556946 11.9546 -0.000556946 9.55092C-0.000556946 7.14728 0.925522 4.82769 2.60115 3.0343C2.75438 2.87664 2.96628 2.78274 3.19126 2.77279C3.41624 2.76284 3.63632 2.83765 3.80414 2.98111C3.97196 3.12457 4.0741 3.32522 4.08859 3.53988C4.10308 3.75455 4.02876 3.96606 3.88162 4.12892C2.48798 5.62132 1.71781 7.55118 1.71781 9.55092C1.71781 11.5507 2.48798 13.4805 3.88162 14.9729C3.9922 15.0909 4.06466 15.237 4.09027 15.3935C4.11587 15.55 4.09353 15.7102 4.02593 15.8548C3.95833 15.9994 3.84837 16.1223 3.7093 16.2086C3.57023 16.2948 3.408 16.3408 3.24217 16.341Z" fill="#C8C8D3"/>
</g>
<defs>
<clipPath id="clip0_1_470">
<rect width="20" height="19.1018" fill="white"/>
</clipPath>
</defs>
</svg>
