<svg width="20" height="20" viewBox="0 0 20 20" fill="none" xmlns="http://www.w3.org/2000/svg">
<g clip-path="url(#clip0_1_283)">
<path d="M10 10.894C10.7767 10.894 11.4062 10.2926 11.4062 9.55086C11.4062 8.80909 10.7767 8.20776 10 8.20776C9.22335 8.20776 8.59375 8.80909 8.59375 9.55086C8.59375 10.2926 9.22335 10.894 10 10.894Z" fill="#EC7433"/>
<path d="M7.43125 12.7508C7.30979 12.7509 7.18969 12.7265 7.07886 12.679C6.96803 12.6315 6.86899 12.5622 6.78828 12.4755C6.0386 11.6697 5.62451 10.6292 5.62451 9.55128C5.62451 8.47334 6.0386 7.43285 6.78828 6.62706C6.86263 6.54439 6.95348 6.47668 7.05552 6.42789C7.15756 6.3791 7.26875 6.35021 7.38261 6.34291C7.49646 6.33561 7.6107 6.35003 7.71866 6.38534C7.82661 6.42066 7.92612 6.47615 8.01138 6.54859C8.09664 6.62103 8.16595 6.70896 8.21525 6.80725C8.26454 6.90555 8.29285 7.01223 8.29852 7.12108C8.30419 7.22994 8.2871 7.33878 8.24825 7.44126C8.20941 7.54373 8.14958 7.6378 8.07226 7.71796C7.60231 8.22324 7.34274 8.87562 7.34274 9.55147C7.34274 10.2273 7.60231 10.8797 8.07226 11.385C8.18223 11.5032 8.25408 11.6493 8.27919 11.8056C8.3043 11.9619 8.28159 12.1218 8.21379 12.2661C8.14599 12.4104 8.036 12.5329 7.89703 12.6189C7.75807 12.7049 7.59605 12.7507 7.43047 12.7508H7.43125Z" fill="#EC7433"/>
<path d="M12.5688 12.7508C12.4032 12.7507 12.2412 12.7049 12.1022 12.6189C11.9632 12.5329 11.8532 12.4104 11.7854 12.2661C11.7176 12.1218 11.6949 11.9619 11.72 11.8056C11.7451 11.6493 11.817 11.5032 11.927 11.385C12.3969 10.8797 12.6565 10.2273 12.6565 9.55147C12.6565 8.87562 12.3969 8.22324 11.927 7.71796C11.8496 7.6378 11.7898 7.54373 11.751 7.44126C11.7121 7.33878 11.695 7.22994 11.7007 7.12108C11.7064 7.01223 11.7347 6.90555 11.784 6.80725C11.8333 6.70896 11.9026 6.62103 11.9878 6.54859C12.0731 6.47615 12.1726 6.42066 12.2806 6.38534C12.3885 6.35003 12.5028 6.33561 12.6166 6.34291C12.7305 6.35021 12.8417 6.3791 12.9437 6.42789C13.0458 6.47668 13.1366 6.54439 13.211 6.62706C13.9606 7.43285 14.3747 8.47334 14.3747 9.55128C14.3747 10.6292 13.9606 11.6697 13.211 12.4755C13.1303 12.5621 13.0314 12.6314 12.9207 12.6788C12.81 12.7263 12.6901 12.7508 12.5688 12.7508V12.7508Z" fill="#EC7433"/>
<path d="M5.441 14.6517C5.32312 14.6518 5.20649 14.6286 5.0984 14.5837C4.99032 14.5388 4.89311 14.473 4.81288 14.3905C3.52783 13.0775 2.81299 11.3473 2.81299 9.54996C2.81299 7.75264 3.52783 6.02242 4.81288 4.70941C4.88979 4.63001 4.98238 4.56591 5.08532 4.52081C5.18826 4.4757 5.29952 4.45048 5.4127 4.44658C5.52588 4.44268 5.63876 4.46019 5.74483 4.49809C5.8509 4.536 5.94809 4.59356 6.03079 4.66746C6.11349 4.74136 6.18009 4.83015 6.22674 4.92871C6.2734 5.02728 6.29919 5.13368 6.30265 5.24179C6.3061 5.34991 6.28714 5.45762 6.24687 5.55872C6.20659 5.65981 6.14579 5.75231 6.06796 5.83089C5.0807 6.8398 4.53152 8.1692 4.53152 9.55014C4.53152 10.9311 5.0807 12.2605 6.06796 13.2694C6.18201 13.3863 6.25788 13.5324 6.28624 13.6899C6.3146 13.8473 6.29423 14.0093 6.22762 14.1558C6.16101 14.3024 6.05107 14.4272 5.91127 14.5149C5.77147 14.6027 5.6079 14.6496 5.44061 14.6498L5.441 14.6517Z" fill="#EC7433"/>
<path d="M14.559 14.6517C14.3917 14.6514 14.2281 14.6046 14.0883 14.5168C13.9485 14.4291 13.8386 14.3043 13.772 14.1577C13.7054 14.0112 13.685 13.8492 13.7133 13.6918C13.7417 13.5343 13.8176 13.3882 13.9316 13.2713C14.9189 12.2624 15.4681 10.933 15.4681 9.55203C15.4681 8.17109 14.9189 6.84169 13.9316 5.83278C13.8538 5.7542 13.793 5.66171 13.7527 5.56061C13.7124 5.45951 13.6935 5.3518 13.6969 5.24369C13.7004 5.13557 13.7262 5.02917 13.7728 4.9306C13.8195 4.83204 13.8861 4.74325 13.9688 4.66935C14.0515 4.59545 14.1487 4.53789 14.2547 4.49999C14.3608 4.46208 14.4737 4.44457 14.5869 4.44847C14.7001 4.45237 14.8113 4.4776 14.9143 4.5227C15.0172 4.56781 15.1098 4.6319 15.1867 4.7113C16.4717 6.02431 17.1866 7.75453 17.1866 9.55185C17.1866 11.3492 16.4717 13.0794 15.1867 14.3924C15.1063 14.4745 15.0091 14.5399 14.9011 14.5845C14.7931 14.6291 14.6766 14.652 14.559 14.6517V14.6517Z" fill="#EC7433"/>
<path d="M16.7578 16.341C16.5919 16.341 16.4296 16.2951 16.2904 16.2089C16.1512 16.1227 16.0411 15.9998 15.9734 15.8552C15.9057 15.7105 15.8833 15.5502 15.9089 15.3937C15.9345 15.2371 16.0069 15.091 16.1176 14.9729C17.5112 13.4805 18.2814 11.5507 18.2814 9.55092C18.2814 7.55118 17.5112 5.62132 16.1176 4.12892C15.9704 3.96606 15.8961 3.75455 15.9106 3.53989C15.9251 3.32522 16.0272 3.12457 16.1951 2.98111C16.3629 2.83765 16.583 2.76284 16.8079 2.77279C17.0329 2.78274 17.2448 2.87664 17.398 3.0343C19.0737 4.82769 19.9998 7.14728 19.9998 9.55092C19.9998 11.9546 19.0737 14.2741 17.398 16.0675C17.3175 16.1536 17.2188 16.2224 17.1085 16.2695C16.9981 16.3166 16.8787 16.341 16.7578 16.341V16.341Z" fill="#EC7433"/>
<path d="M3.24218 16.341C3.12117 16.3412 3.00149 16.317 2.891 16.2698C2.78052 16.2227 2.68174 16.1538 2.60116 16.0675C0.92553 14.2741 -0.000549316 11.9546 -0.000549316 9.55092C-0.000549316 7.14728 0.92553 4.82769 2.60116 3.0343C2.75438 2.87664 2.96629 2.78274 3.19127 2.77279C3.41625 2.76284 3.63633 2.83765 3.80415 2.98111C3.97197 3.12457 4.07411 3.32522 4.0886 3.53988C4.10309 3.75455 4.02877 3.96606 3.88163 4.12892C2.48799 5.62132 1.71782 7.55118 1.71782 9.55092C1.71782 11.5507 2.48799 13.4805 3.88163 14.9729C3.99221 15.0909 4.06467 15.237 4.09027 15.3935C4.11588 15.55 4.09354 15.7102 4.02594 15.8548C3.95834 15.9994 3.84837 16.1223 3.70931 16.2086C3.57024 16.2948 3.408 16.3408 3.24218 16.341V16.341Z" fill="#EC7433"/>
</g>
<defs>
<clipPath id="clip0_1_283">
<rect width="20" height="19.1018" fill="white"/>
</clipPath>
</defs>
</svg>
