<svg width="16" height="16" viewBox="0 0 16 16" fill="none" xmlns="http://www.w3.org/2000/svg">
<path d="M4.63033 1C4.92686 1 5.20008 1.16082 5.34404 1.42011L6.34257 3.2188C6.47331 3.45431 6.47947 3.73917 6.35898 3.98011L5.39702 5.90407C5.39702 5.90407 5.6758 7.33729 6.84249 8.50399C8.00923 9.67068 9.43764 9.94464 9.43764 9.94464L11.3613 8.98284C11.6024 8.86227 11.8874 8.86852 12.123 8.9995L13.9268 10.0024C14.1859 10.1464 14.3465 10.4195 14.3465 10.7158V12.7866C14.3465 13.8412 13.3669 14.6029 12.3678 14.2657C10.3155 13.5733 7.12992 12.2548 5.11082 10.2357C3.09172 8.21656 1.77324 5.03097 1.08077 2.97876C0.743623 1.97954 1.50529 1 2.55984 1H4.63033Z" fill="#C8C8D3" stroke="#C8C8D3" stroke-width="1.95918" stroke-linejoin="round"/>
</svg>
