<svg width="24" height="24" viewBox="0 0 24 24" fill="none" xmlns="http://www.w3.org/2000/svg">
<path d="M18 15.75C17.5959 15.7498 17.196 15.8316 16.8245 15.9903C16.4529 16.149 16.1174 16.3814 15.8381 16.6734L8.9006 12.7701C9.03499 12.2655 9.03499 11.7345 8.9006 11.2298L15.8381 7.32655C16.3433 7.85031 17.0221 8.1719 17.7474 8.23109C18.4726 8.29028 19.1946 8.083 19.778 7.64809C20.3614 7.21317 20.7663 6.58046 20.9167 5.86849C21.0671 5.15652 20.9527 4.41413 20.5951 3.78042C20.2374 3.1467 19.6609 2.66514 18.9737 2.42594C18.2864 2.18674 17.5355 2.20632 16.8617 2.48101C16.1879 2.7557 15.6373 3.26666 15.3131 3.91815C14.989 4.56965 14.9135 5.31698 15.1008 6.02015L8.16326 9.92343C7.74886 9.49135 7.21466 9.19314 6.62939 9.06716C6.04411 8.94118 5.43453 8.9932 4.87906 9.21652C4.32359 9.43983 3.84764 9.82424 3.51243 10.3203C3.17723 10.8163 2.99811 11.4013 2.99811 12C2.99811 12.5987 3.17723 13.1837 3.51243 13.6797C3.84764 14.1757 4.32359 14.5601 4.87906 14.7835C5.43453 15.0068 6.04411 15.0588 6.62939 14.9328C7.21466 14.8068 7.74886 14.5086 8.16326 14.0766L15.1008 17.9798C14.9399 18.5854 14.9727 19.2261 15.1945 19.8121C15.4164 20.3981 15.8161 20.8999 16.3376 21.2471C16.8592 21.5944 17.4763 21.7696 18.1025 21.7482C18.7287 21.7269 19.3325 21.51 19.8292 21.128C20.3258 20.746 20.6904 20.2181 20.8718 19.6184C21.0532 19.0186 21.0422 18.3771 20.8404 17.784C20.6387 17.1908 20.2562 16.6756 19.7468 16.3109C19.2374 15.9461 18.6265 15.7499 18 15.75Z" fill="#EC7433"/>
</svg>
